<svg width="40" height="40" viewBox="0 0 40 40" fill="none" xmlns="http://www.w3.org/2000/svg">
<path d="M4.00059 1.55231C4.05673 1.55215 4.11288 1.55199 4.17072 1.55183C4.35937 1.55139 4.548 1.5515 4.73665 1.55161C4.87306 1.55141 5.00948 1.55117 5.14589 1.55091C5.52118 1.55028 5.89646 1.55014 6.27175 1.55008C6.67634 1.54993 7.08093 1.54934 7.48552 1.54882C8.3704 1.54776 9.25528 1.54729 10.1402 1.54694C10.6926 1.54673 11.2451 1.54639 11.7975 1.54604C13.327 1.54509 14.8564 1.54429 16.3859 1.54402C16.4838 1.544 16.5817 1.54399 16.6825 1.54397C16.7807 1.54395 16.8788 1.54394 16.9799 1.54392C17.1788 1.54388 17.3776 1.54385 17.5765 1.54381C17.6751 1.5438 17.7737 1.54378 17.8754 1.54376C19.4738 1.54345 21.0722 1.54209 22.6706 1.54027C24.3114 1.53842 25.9522 1.53744 27.593 1.53735C28.5144 1.53728 29.4357 1.53683 30.3571 1.53541C31.1416 1.53421 31.9262 1.53381 32.7107 1.53446C33.111 1.53476 33.5112 1.53469 33.9114 1.53359C34.278 1.5326 34.6446 1.53269 35.0112 1.53364C35.1437 1.53379 35.2761 1.53355 35.4085 1.53287C36.5114 1.52756 37.4472 1.65686 38.2991 2.42226C38.8572 3.00751 39.2275 3.73287 39.2291 4.54889C39.2295 4.63199 39.2298 4.71508 39.2302 4.80069C39.2301 4.93752 39.2301 4.93752 39.2301 5.07711C39.2304 5.17408 39.2307 5.27104 39.231 5.37094C39.2317 5.64026 39.2321 5.90957 39.2323 6.17888C39.2326 6.46929 39.2333 6.75971 39.234 7.05012C39.2356 7.75159 39.2363 8.45306 39.237 9.15453C39.2374 9.48499 39.2378 9.81545 39.2382 10.1459C39.2395 11.2447 39.2407 12.3435 39.2412 13.4423C39.2414 13.7274 39.2415 14.0124 39.2417 14.2975C39.2417 14.3684 39.2418 14.4393 39.2418 14.5123C39.2425 15.6597 39.2444 16.8072 39.247 17.9547C39.2496 19.1331 39.251 20.3116 39.2512 21.4901C39.2514 22.1516 39.2521 22.8131 39.2541 23.4746C39.2558 24.0381 39.2564 24.6016 39.2556 25.165C39.2553 25.4523 39.2554 25.7396 39.2569 26.0269C39.2586 26.3389 39.2578 26.6509 39.2567 26.963C39.258 27.098 39.258 27.098 39.2593 27.2357C39.2519 28.1669 38.9507 28.9777 38.3132 29.6653C37.4738 30.4415 36.4559 30.5739 35.3547 30.5614C35.2687 30.561 35.1828 30.5607 35.0943 30.5604C34.8085 30.5592 34.5228 30.5568 34.2371 30.5545C34.0313 30.5534 33.8255 30.5524 33.6197 30.5516C33.2346 30.5498 32.8496 30.5478 32.4645 30.5455C31.7073 30.541 30.9501 30.5389 30.1928 30.5376C30.0733 30.5374 29.9537 30.5371 29.8342 30.5369C29.5922 30.5365 29.3502 30.5361 29.1082 30.5357C28.4874 30.5346 27.8666 30.5335 27.2458 30.532C27.1835 30.5319 27.1213 30.5318 27.0571 30.5316C26.0492 30.5292 25.0413 30.5234 24.0334 30.5165C22.9959 30.5094 21.9585 30.5066 20.9211 30.5075C20.2826 30.5079 19.6443 30.505 19.0058 30.4978C18.5676 30.4932 18.1295 30.4926 17.6912 30.4951C17.439 30.4964 17.1872 30.4954 16.935 30.4908C15.8352 30.4715 15.0681 30.5196 14.2426 31.2985C14.1485 31.3927 14.0553 31.4877 13.9632 31.5837C13.7527 31.7941 13.5187 31.9701 13.2811 32.1485C12.8714 32.4668 12.4698 32.7941 12.0702 33.1251C11.6706 33.4561 11.2687 33.7829 10.8593 34.1016C10.3387 34.5071 9.82998 34.9263 9.32147 35.3468C8.60813 35.9364 7.88917 36.5194 7.1648 37.0954C6.98849 37.2372 6.81338 37.3802 6.63867 37.5239C6.58268 37.5698 6.52669 37.6157 6.469 37.663C6.3575 37.7546 6.24621 37.8463 6.13513 37.9383C6.08377 37.9804 6.03241 38.0225 5.97949 38.0659C5.93373 38.1036 5.88797 38.1414 5.84083 38.1803C5.50919 38.4234 5.25844 38.4876 4.84363 38.4376C4.61141 38.2981 4.41972 38.1366 4.29675 37.8907C4.28945 37.6595 4.28693 37.4301 4.28788 37.1988C4.28787 37.1272 4.28786 37.0555 4.28785 36.9817C4.2879 36.7441 4.28851 36.5066 4.28912 36.269C4.28927 36.1046 4.28938 35.9402 4.28946 35.7757C4.28976 35.3424 4.29053 34.909 4.29139 34.4757C4.29219 34.0337 4.29255 33.5918 4.29294 33.1498C4.29378 32.2822 4.29511 31.4146 4.29675 30.547C4.22307 30.5428 4.14938 30.5386 4.07346 30.5343C3.97604 30.5282 3.87863 30.5221 3.77826 30.5158C3.68201 30.51 3.58577 30.5043 3.48661 30.4983C2.59167 30.4053 1.91785 29.9564 1.34265 29.2823C0.835017 28.5732 0.734802 27.8093 0.741446 26.9573C0.740959 26.8598 0.740471 26.7623 0.739969 26.6618C0.738945 26.3939 0.739304 26.126 0.740278 25.8581C0.740989 25.5681 0.739891 25.2782 0.739034 24.9882C0.737648 24.4212 0.737942 23.8543 0.73885 23.2873C0.739558 22.8263 0.739651 22.3653 0.739311 21.9043C0.739264 21.8386 0.739216 21.7728 0.739166 21.7051C0.739066 21.5715 0.738965 21.4378 0.738863 21.3042C0.737973 20.0532 0.738994 18.8022 0.740675 17.5512C0.742071 16.479 0.741828 15.4067 0.740388 14.3345C0.738714 13.0877 0.738058 11.8408 0.739017 10.594C0.739116 10.4609 0.739214 10.3278 0.739311 10.1948C0.73936 10.1293 0.739408 10.0638 0.739457 9.99638C0.739727 9.53618 0.739273 9.07598 0.738537 8.61578C0.737658 8.05462 0.737902 7.49347 0.739562 6.93231C0.74038 6.64628 0.740709 6.36027 0.739671 6.07424C0.738561 5.7636 0.739891 5.45299 0.741446 5.14235C0.740749 5.05278 0.740052 4.96321 0.739334 4.87092C0.748481 3.92657 1.0609 3.12487 1.70123 2.42684C2.35312 1.80828 3.11571 1.55317 4.00059 1.55231ZM2.90515 3.64754C2.86275 3.68168 2.82036 3.71582 2.77667 3.751C2.37494 4.26868 2.38826 4.85236 2.39199 5.47723C2.39163 5.57144 2.39126 5.66565 2.39088 5.76271C2.39011 6.02287 2.39039 6.283 2.39112 6.54316C2.39165 6.82425 2.39083 7.10533 2.39018 7.38641C2.38914 7.93653 2.38936 8.48664 2.39004 9.03676C2.39057 9.48394 2.39065 9.93112 2.39039 10.3783C2.39035 10.442 2.39032 10.5057 2.39028 10.5713C2.39021 10.7007 2.39013 10.8301 2.39005 10.9596C2.38939 12.1724 2.39015 13.3853 2.39141 14.5981C2.39246 15.6383 2.39228 16.6785 2.3912 17.7187C2.38994 18.9273 2.38945 20.1359 2.39017 21.3445C2.39024 21.4734 2.39032 21.6023 2.39039 21.7312C2.39043 21.7947 2.39046 21.8581 2.3905 21.9235C2.3907 22.37 2.39036 22.8165 2.38981 23.263C2.38915 23.8074 2.38933 24.3517 2.39058 24.896C2.39119 25.1736 2.39144 25.4512 2.39066 25.7289C2.38983 26.03 2.39082 26.3311 2.39199 26.6323C2.39147 26.7197 2.39095 26.8072 2.39041 26.8972C2.39448 27.4382 2.42933 27.9248 2.78491 28.3613C2.82943 28.3961 2.87394 28.431 2.9198 28.4669C2.96391 28.5029 3.00802 28.539 3.05347 28.5761C3.36532 28.776 3.64287 28.8473 4.01111 28.8523C4.08916 28.8543 4.16721 28.8562 4.24762 28.8583C4.41058 28.861 4.57354 28.8635 4.73651 28.8656C5.48504 28.8854 5.48504 28.8854 5.78113 29.1407C5.90275 29.3839 5.87329 29.6428 5.87529 29.9099C5.87607 29.9732 5.87684 30.0365 5.87764 30.1017C5.88011 30.3113 5.88204 30.521 5.88397 30.7307C5.88558 30.8758 5.88722 31.021 5.88889 31.1661C5.89321 31.5486 5.89707 31.9311 5.90083 32.3136C5.90476 32.7037 5.90911 33.0938 5.91342 33.484C5.92183 34.2498 5.92976 35.0155 5.93738 35.7813C6.15206 35.6768 6.33129 35.5704 6.51538 35.4179C6.56513 35.377 6.61487 35.3361 6.66612 35.294C6.7189 35.2502 6.77167 35.2064 6.82605 35.1612C6.93901 35.0684 7.05202 34.9756 7.1651 34.8829C7.24983 34.8134 7.24983 34.8134 7.33627 34.7425C7.56895 34.5533 7.80514 34.3688 8.04187 34.1847C8.45285 33.8642 8.85633 33.5356 9.25769 33.2032C9.70234 32.835 10.1509 32.4732 10.6063 32.1183C10.9546 31.8463 11.2981 31.5686 11.6405 31.2891C12.0336 30.9686 12.4282 30.6503 12.827 30.337C12.8929 30.2852 12.8929 30.2852 12.9601 30.2323C13.1894 30.0527 13.4203 29.8754 13.6531 29.7004C13.7005 29.6646 13.7479 29.6288 13.7967 29.592C13.8873 29.5237 13.9782 29.4558 14.0695 29.3885C14.1741 29.3095 14.2749 29.2255 14.3749 29.1407C14.3749 29.0891 14.3749 29.0376 14.3749 28.9845C14.6378 28.9255 14.8805 28.8965 15.1498 28.8964C15.2256 28.8961 15.3013 28.8959 15.3794 28.8957C15.4621 28.8958 15.5447 28.8959 15.6298 28.8961C15.7181 28.8959 15.8064 28.8957 15.8973 28.8956C16.1937 28.8951 16.4901 28.8952 16.7865 28.8953C16.9987 28.8951 17.211 28.8947 17.4232 28.8944C17.8806 28.8938 18.338 28.8934 18.7955 28.8932C19.5186 28.8927 20.2418 28.8914 20.965 28.8899C21.2125 28.8894 21.46 28.8889 21.7075 28.8884C21.8002 28.8883 21.8002 28.8883 21.8949 28.8881C22.5988 28.8867 23.3026 28.8854 24.0065 28.8842C24.103 28.8841 24.103 28.8841 24.2015 28.8839C25.244 28.8822 26.2865 28.8813 27.3291 28.8808C28.3998 28.8801 29.4705 28.8783 30.5412 28.8755C31.2014 28.8737 31.8616 28.873 32.5218 28.8735C32.9744 28.8737 33.4269 28.8728 33.8795 28.871C34.1405 28.8701 34.4014 28.8697 34.6624 28.8705C34.9457 28.8711 35.2288 28.8699 35.512 28.8682C35.5942 28.8689 35.6763 28.8695 35.7609 28.8702C36.3012 28.8642 36.7394 28.7797 37.15 28.4082C37.6237 27.8838 37.6006 27.3174 37.5984 26.6511C37.5987 26.557 37.599 26.4629 37.5993 26.366C37.5999 26.1055 37.5999 25.845 37.5996 25.5845C37.5994 25.3033 37.6001 25.0221 37.6007 24.7409C37.6017 24.1903 37.6018 23.6396 37.6016 23.089C37.6015 22.6413 37.6016 22.1937 37.602 21.7461C37.602 21.6505 37.602 21.6505 37.6021 21.553C37.6022 21.4235 37.6023 21.2941 37.6024 21.1646C37.6032 19.9507 37.6031 18.7368 37.6026 17.5229C37.6022 16.4127 37.6031 15.3025 37.6045 14.1923C37.6061 13.052 37.6067 11.9117 37.6064 10.7714C37.6063 10.1314 37.6065 9.49133 37.6076 8.85127C37.6085 8.30636 37.6086 7.76146 37.6077 7.21655C37.6072 6.93863 37.6071 6.66071 37.608 6.38279C37.6091 6.08128 37.6082 5.77979 37.6072 5.47828C37.6078 5.39075 37.6084 5.30322 37.609 5.21303C37.6051 4.65762 37.5633 4.1805 37.2032 3.73116C37.1529 3.68906 37.1025 3.64697 37.0507 3.6036C36.9763 3.53864 36.9763 3.53864 36.9005 3.47237C36.4954 3.22091 36.0685 3.18365 35.6011 3.18333C35.546 3.18308 35.491 3.18282 35.4343 3.18257C35.2503 3.18192 35.0663 3.18238 34.8823 3.18284C34.7489 3.1826 34.6154 3.1823 34.482 3.18193C34.1157 3.18113 33.7493 3.1813 33.383 3.18164C32.9878 3.18183 32.5926 3.18112 32.1974 3.18054C31.4233 3.17954 30.6492 3.1794 29.8751 3.17959C29.2459 3.17973 28.6168 3.17959 27.9877 3.17926C27.8982 3.17921 27.8087 3.17916 27.7164 3.17911C27.5346 3.17902 27.3528 3.17893 27.1709 3.17883C25.4654 3.17798 23.7599 3.17815 22.0544 3.17863C20.4938 3.17903 18.9332 3.17815 17.3726 3.17667C15.7704 3.17515 14.1683 3.17451 12.5661 3.1748C11.6665 3.17495 10.7669 3.17475 9.8673 3.17365C9.10152 3.17272 8.33575 3.17261 7.56997 3.17356C7.17923 3.17402 6.7885 3.1741 6.39776 3.17316C6.04004 3.17232 5.68234 3.17256 5.32463 3.17365C5.19525 3.17386 5.06587 3.17367 4.93649 3.17305C3.84953 3.15638 3.84953 3.15638 2.90515 3.64754Z" fill="#767676"/>
<path d="M20.9518 7.77664C21.4283 8.15988 21.6678 8.68279 21.9327 9.22012C21.9737 9.30232 22.0148 9.38452 22.0571 9.46922C22.1434 9.64215 22.2293 9.81525 22.3149 9.98848C22.4465 10.2546 22.5792 10.5202 22.7119 10.7857C22.7957 10.9539 22.8793 11.1221 22.963 11.2904C23.0027 11.3702 23.0425 11.4499 23.0835 11.5321C23.1379 11.6424 23.1379 11.6424 23.1935 11.755C23.2256 11.8198 23.2577 11.8847 23.2908 11.9515C23.3594 12.1095 23.3594 12.1095 23.3594 12.2658C23.4051 12.2721 23.4508 12.2784 23.4979 12.285C23.9784 12.3516 24.4588 12.4189 24.9391 12.4866C25.1178 12.5116 25.2966 12.5366 25.4753 12.5613C28.3208 12.9557 28.3208 12.9557 28.8693 13.5716C29.1358 13.9326 29.2015 14.2584 29.1776 14.7035C29.0525 15.4435 28.5883 15.9225 28.0469 16.4064C28.0047 16.4458 27.9626 16.4852 27.9192 16.5258C27.611 16.8071 27.2993 17.0306 26.9431 17.2487C26.3752 17.6412 25.8186 18.0564 25.625 18.7501C25.532 19.9494 25.8898 21.2198 26.1751 22.3759C26.3387 23.0391 26.4319 23.5111 26.0938 24.1408C25.7419 24.5482 25.3797 24.7988 24.8431 24.8625C23.9497 24.8938 23.1659 24.3629 22.3975 23.9601C22.3005 23.9097 22.2035 23.8593 22.1065 23.8089C22.0101 23.7587 21.9137 23.7085 21.8173 23.6583C21.7464 23.6215 21.7464 23.6215 21.6741 23.584C21.4359 23.4598 21.2008 23.3323 20.9685 23.1974C20.8355 23.1213 20.8355 23.1213 20.6998 23.0437C20.5821 22.9743 20.5821 22.9743 20.462 22.9035C20.1824 22.7919 20.0529 22.8075 19.7656 22.8908C19.5979 22.9643 19.433 23.0447 19.2709 23.13C19.2249 23.1541 19.1788 23.1781 19.1313 23.2028C18.9827 23.2805 18.8346 23.3591 18.6865 23.4376C18.5844 23.4912 18.4823 23.5446 18.3801 23.5981C17.9412 23.8279 17.5036 24.0604 17.0667 24.294C17.0057 24.3265 16.9448 24.359 16.882 24.3925C16.7733 24.4507 16.6648 24.5093 16.5566 24.5683C16.0331 24.8503 15.4906 24.9644 14.9048 24.7932C14.4005 24.5663 14.0866 24.2188 13.8672 23.716C13.7241 22.9593 13.9907 22.0482 14.1248 21.2978C14.1371 21.2285 14.1495 21.1592 14.1622 21.0878C14.2135 20.8017 14.2651 20.5156 14.318 20.2298C14.357 20.0179 14.3948 19.8058 14.4324 19.5937C14.4447 19.5291 14.4569 19.4646 14.4696 19.3981C14.527 19.0685 14.5511 18.8794 14.375 18.5939C14.2755 18.4716 14.2755 18.4716 14.1592 18.3591C14.1159 18.3156 14.0725 18.272 14.0279 18.2271C13.9811 18.1809 13.9343 18.1346 13.8861 18.087C13.8375 18.0385 13.7889 17.9899 13.7389 17.9399C13.636 17.8372 13.5329 17.7347 13.4296 17.6324C13.2733 17.4775 13.1176 17.322 12.962 17.1664C12.3033 16.5068 12.3033 16.5068 11.6026 15.8926C11.2055 15.5191 11.0098 15.0547 10.9912 14.5168C10.9989 13.9978 11.1867 13.6088 11.5137 13.213C12.2511 12.6816 13.6209 12.6926 14.5 12.5613C14.7489 12.5241 14.9977 12.4865 15.2466 12.4487C15.4049 12.4248 15.5631 12.401 15.7214 12.3772C15.833 12.3603 15.833 12.3603 15.9468 12.3431C16.0152 12.333 16.0836 12.3228 16.1541 12.3123C16.2444 12.2987 16.2444 12.2987 16.3365 12.285C16.4844 12.2658 16.4844 12.2658 16.6406 12.2658C16.6584 12.2052 16.6761 12.1447 16.6944 12.0824C16.8312 11.7013 17.0073 11.3446 17.186 10.9816C17.2243 10.9036 17.2627 10.8256 17.3022 10.7453C17.3834 10.5807 17.4648 10.4163 17.5463 10.252C17.6292 10.0844 17.7116 9.91648 17.7934 9.7483C17.9119 9.50448 18.0322 9.26153 18.1528 9.0187C18.1888 8.94399 18.2248 8.86927 18.2618 8.79228C18.5259 8.26747 18.8169 7.90449 19.3417 7.62893C19.8887 7.48272 20.4498 7.5138 20.9518 7.77664ZM19.7656 9.37515C19.7307 9.447 19.7307 9.447 19.6952 9.52029C19.452 10.0204 19.2071 10.5196 18.9612 11.0183C18.8696 11.2043 18.7788 11.3906 18.6882 11.5771C18.5577 11.8457 18.4256 12.1135 18.2932 12.3811C18.2333 12.5057 18.2333 12.5057 18.1722 12.6327C17.9031 13.1714 17.6348 13.5829 17.0737 13.8371C16.2013 14.0253 15.3167 14.1453 14.4336 14.2726C14.261 14.2978 14.0883 14.3231 13.9157 14.3484C13.496 14.4099 13.0761 14.4709 12.6562 14.5314C12.7914 14.8199 12.9549 15.0054 13.1818 15.2312C13.2182 15.2676 13.2547 15.304 13.2922 15.3415C13.3694 15.4184 13.4467 15.4952 13.5243 15.5718C13.641 15.687 13.757 15.8029 13.873 15.9189C14.2455 16.29 14.6221 16.653 15.0222 16.9944C15.6007 17.4912 15.9943 17.9396 16.0862 18.7201C16.1006 19.077 16.0283 19.4213 15.9647 19.7713C15.9507 19.8525 15.9367 19.9337 15.9223 20.0174C15.8777 20.2755 15.832 20.5333 15.7861 20.7912C15.7407 21.0496 15.6955 21.308 15.6508 21.5666C15.623 21.727 15.5948 21.8873 15.566 22.0476C15.5025 22.4113 15.4509 22.7542 15.4688 23.1251C15.8385 23.0132 16.1733 22.8585 16.5143 22.6796C16.5958 22.6374 16.5958 22.6374 16.6789 22.5943C16.8519 22.5046 17.0246 22.4145 17.1973 22.3244C17.3114 22.265 17.4255 22.2057 17.5397 22.1465C17.5955 22.1174 17.6514 22.0884 17.7089 22.0585C17.9273 21.9453 18.1458 21.8323 18.3643 21.7194C18.5065 21.6455 18.6482 21.5708 18.7898 21.4959C18.8711 21.4537 18.9525 21.4115 19.0363 21.3679C19.1404 21.3131 19.1404 21.3131 19.2467 21.2572C19.7642 21.0437 20.2424 21.0826 20.7559 21.2856C21.0242 21.4133 21.2835 21.5563 21.5429 21.7011C21.8617 21.875 22.1889 22.0322 22.5146 22.1925C23.0548 22.461 23.5877 22.7392 24.1144 23.033C24.286 23.1369 24.286 23.1369 24.4531 23.1251C24.4248 22.5427 24.3453 21.9768 24.245 21.403C24.2328 21.3327 24.2205 21.2624 24.2079 21.19C24.1565 20.8965 24.1046 20.6031 24.0516 20.3098C24.0127 20.0933 23.9749 19.8766 23.9374 19.6599C23.9253 19.5947 23.9131 19.5295 23.9007 19.4623C23.8163 18.9689 23.7899 18.4776 23.989 18.0083C24.2787 17.6003 24.6063 17.2541 24.9658 16.9063C25.1281 16.7466 25.2776 16.5846 25.4248 16.4113C25.6492 16.1481 25.8907 15.9059 26.1377 15.6642C26.4721 15.3339 26.7673 14.9983 27.0312 14.6095C26.5807 14.4672 26.1341 14.3926 25.6668 14.3266C25.5077 14.3033 25.3485 14.28 25.1894 14.2566C24.9407 14.2205 24.6919 14.1847 24.4431 14.1491C24.2015 14.1145 23.96 14.079 23.7186 14.0434C23.6449 14.0332 23.5712 14.0229 23.4953 14.0123C22.8525 13.9168 22.3222 13.8274 21.9076 13.2927C21.6884 12.9609 21.5149 12.6084 21.3409 12.2514C21.3 12.169 21.259 12.0865 21.2168 12.0015C21.0872 11.74 20.9586 11.478 20.8301 11.216C20.742 11.0378 20.6538 10.8596 20.5655 10.6815C20.3501 10.2464 20.1357 9.81096 19.9219 9.37515C19.8703 9.37515 19.8188 9.37515 19.7656 9.37515Z" fill="url(#paint0_linear_1_145)"/>
<defs>
<linearGradient id="paint0_linear_1_145" x1="20.2879" y1="7.74469" x2="27.4451" y2="24.1111" gradientUnits="userSpaceOnUse">
<stop stop-color="#CBF56D"/>
</linearGradient>
</defs>
</svg>
