<svg width="42" height="42" viewBox="0 0 42 42" fill="none" xmlns="http://www.w3.org/2000/svg">
<path fill-rule="evenodd" clip-rule="evenodd" d="M20.9999 37.8002C25.4556 37.8002 29.7287 36.0302 32.8793 32.8796C36.03 29.729 37.7999 25.4558 37.7999 21.0002C37.7999 16.5446 36.03 12.2714 32.8793 9.1208C29.7287 5.97019 25.4556 4.2002 20.9999 4.2002C16.5443 4.2002 12.2712 5.97019 9.12056 9.1208C5.96995 12.2714 4.19995 16.5446 4.19995 21.0002C4.19995 25.4558 5.96995 29.729 9.12056 32.8796C12.2712 36.0302 16.5443 37.8002 20.9999 37.8002ZM29.0996 17.2013C29.2213 17.0339 29.3087 16.8442 29.357 16.643C29.4053 16.4418 29.4135 16.2331 29.3811 16.0287C29.3488 15.8243 29.2765 15.6283 29.1684 15.4519C29.0602 15.2755 28.9184 15.1221 28.751 15.0005C28.5837 14.8789 28.3939 14.7914 28.1927 14.7431C27.9916 14.6948 27.7828 14.6866 27.5784 14.719C27.3741 14.7514 27.1781 14.8237 27.0017 14.9318C26.8253 15.0399 26.6719 15.1817 26.5502 15.3491L19.2359 25.4081L15.2879 21.4601C15.1426 21.3097 14.9687 21.1898 14.7765 21.1074C14.5844 21.0249 14.3777 20.9816 14.1685 20.9799C13.9594 20.9781 13.752 21.0181 13.5585 21.0974C13.365 21.1767 13.1892 21.2937 13.0414 21.4416C12.8936 21.5896 12.7767 21.7655 12.6976 21.9591C12.6185 22.1527 12.5787 22.3601 12.5807 22.5692C12.5826 22.7784 12.6261 22.985 12.7088 23.1771C12.7914 23.3692 12.9115 23.543 13.0619 23.6882L18.3119 28.9382C18.4729 29.0992 18.6668 29.2234 18.8803 29.3023C19.0938 29.3811 19.3219 29.4128 19.5489 29.395C19.7758 29.3773 19.9962 29.3105 20.1949 29.1994C20.3935 29.0882 20.5657 28.9354 20.6996 28.7513L29.0996 17.2013Z" fill="#CBF56D"/>
</svg>
