<svg width="40" height="40" viewBox="0 0 40 40" fill="none" xmlns="http://www.w3.org/2000/svg">
<g clip-path="url(#clip0_1_130)">
<path d="M12.4329 13.2656C12.5018 13.2652 12.5707 13.2647 12.6416 13.2643C12.7872 13.2635 12.9327 13.263 13.0782 13.2627C13.299 13.262 13.5198 13.2595 13.7406 13.2571C13.8825 13.2566 14.0244 13.2562 14.1663 13.2559C14.2315 13.2549 14.2967 13.2539 14.3639 13.2529C15.0148 13.2554 15.5778 13.4204 16.0938 13.8284C16.6953 14.4814 16.7275 15.1198 16.7445 15.9695C16.8088 16.3138 16.9181 16.4242 17.1876 16.6409C17.5309 16.8219 17.8165 16.9542 18.2032 16.8752C18.3695 16.7544 18.5161 16.6215 18.6658 16.4806C18.8219 16.3343 18.9812 16.2004 19.1505 16.0696C19.1974 16.0328 19.2443 15.9961 19.2927 15.9582C19.6464 15.7409 19.9999 15.6778 20.4102 15.6692C20.4912 15.6661 20.5722 15.6629 20.6556 15.6597C21.5523 15.7985 22.1195 16.4337 22.7286 17.0528C22.8809 17.2072 23.0352 17.3594 23.1898 17.5115C23.2886 17.6106 23.3872 17.7098 23.4858 17.8091C23.554 17.8761 23.554 17.8761 23.6237 17.9445C24.0844 18.4185 24.3422 18.945 24.336 19.6145C24.3072 20.4286 23.9883 20.8101 23.4394 21.3909C23.2092 21.6411 23.123 21.7368 23.1348 22.0852C23.1894 22.4368 23.3152 22.7527 23.5157 23.0471C23.8026 23.2384 23.9648 23.2262 24.3067 23.2375C25.0759 23.2754 25.724 23.4268 26.2647 24.0139C26.6704 24.6014 26.7312 25.1002 26.7347 25.7925C26.7351 25.8614 26.7356 25.9302 26.736 26.0012C26.7368 26.1467 26.7373 26.2922 26.7376 26.4377C26.7383 26.6586 26.7408 26.8793 26.7432 27.1002C26.7437 27.2421 26.7442 27.384 26.7445 27.5259C26.7454 27.5911 26.7464 27.6563 26.7474 27.7235C26.7449 28.3933 26.5712 29.0407 26.0938 29.5315C25.5641 29.9316 25.1106 30.016 24.4585 30.0407C24.1194 30.0575 23.823 30.0857 23.5157 30.2346C23.3759 30.4193 23.3759 30.4193 23.2911 30.6448C23.243 30.7542 23.243 30.7542 23.194 30.8657C23.1181 31.1172 23.0954 31.3016 23.1251 31.5628C23.2239 31.7288 23.2239 31.7288 23.3692 31.8655C23.5673 32.0757 23.7555 32.2851 23.9307 32.5149C23.9859 32.5867 23.9859 32.5867 24.0421 32.6599C24.3858 33.193 24.3546 33.7795 24.2744 34.3911C24.131 34.9006 23.7082 35.2678 23.3473 35.6347C23.183 35.8021 23.021 35.9714 22.8587 36.1407C22.736 36.2669 22.6132 36.3929 22.4903 36.5188C22.4325 36.5789 22.3748 36.639 22.3153 36.701C21.7941 37.2274 21.2291 37.66 20.4639 37.6809C19.7768 37.6701 19.3179 37.4691 18.8331 36.9827C18.7498 36.8917 18.7498 36.8917 18.6649 36.799C18.4675 36.5899 18.334 36.4923 18.0469 36.4505C17.6264 36.4604 17.2341 36.6703 16.8751 36.8753C16.7783 37.0689 16.7826 37.2407 16.7743 37.454C16.7437 38.2282 16.6594 38.9501 16.0938 39.5315C15.7074 39.8234 15.3633 40.0088 14.8723 40.0128C14.799 40.0136 14.7257 40.0143 14.6502 40.0151C14.5711 40.0155 14.492 40.0158 14.4105 40.0161C14.3289 40.0166 14.2473 40.017 14.1632 40.0175C13.9903 40.0182 13.8175 40.0187 13.6446 40.019C13.3811 40.0198 13.1176 40.0222 12.8541 40.0247C12.686 40.0252 12.518 40.0256 12.3499 40.0259C12.2715 40.0269 12.193 40.0278 12.1121 40.0288C11.4009 40.0266 10.9737 39.8405 10.4478 39.3573C9.98131 38.8803 9.98292 38.3685 9.96649 37.7362C9.94988 37.3686 9.89849 37.1011 9.68756 36.7971C9.45754 36.6517 9.45754 36.6517 9.18952 36.5628C9.1019 36.5289 9.01428 36.4951 8.92401 36.4602C8.63685 36.399 8.53216 36.417 8.28131 36.5628C8.14812 36.6793 8.14812 36.6793 8.03229 36.8167C7.55233 37.3198 6.9801 37.6592 6.27936 37.6809C5.40349 37.663 4.87558 37.215 4.27725 36.6197C4.12646 36.4706 3.97313 36.3243 3.81964 36.1779C2.34334 34.755 2.34334 34.755 2.31939 33.7796C2.33324 32.8198 2.86308 32.2935 3.51568 31.6409C3.58212 31.1094 3.44966 30.6658 3.12506 30.2346C2.76432 30.0262 2.36285 30.049 1.95776 30.041C1.26181 30.0138 0.789486 29.7067 0.312556 29.219C0.0610917 28.8702 -0.00867195 28.5708 -0.0137727 28.1461C-0.0147755 28.073 -0.0157782 28 -0.0168114 27.9248C-0.0173885 27.8463 -0.0179656 27.7678 -0.0185602 27.687C-0.0191908 27.6057 -0.0198214 27.5244 -0.0204711 27.4406C-0.0215509 27.2686 -0.0223893 27.0965 -0.0230043 26.9245C-0.0239043 26.749 -0.025502 26.5735 -0.0278108 26.398C-0.0311522 26.1441 -0.0324092 25.8902 -0.0332086 25.6362C-0.0345764 25.5584 -0.0359442 25.4806 -0.0373535 25.4004C-0.0358225 24.9046 0.0471119 24.5607 0.312556 24.1409C0.356062 24.0716 0.399568 24.0023 0.444392 23.9309C1.03951 23.3358 1.71235 23.2658 2.51608 23.2548C2.77448 23.2444 2.93927 23.2246 3.15161 23.0721C3.39536 22.7315 3.52227 22.3647 3.59381 21.9534C3.46446 21.5653 3.26149 21.3854 2.96881 21.1086C2.52273 20.6759 2.33587 20.1981 2.29498 19.5803C2.35506 18.5998 3.01351 17.9326 3.68143 17.2863C3.81892 17.1531 3.9544 17.0181 4.08972 16.8827C5.2831 15.7007 5.2831 15.7007 6.21588 15.6741C6.98694 15.6828 7.42959 15.9276 7.96881 16.4651C8.05341 16.5563 8.05341 16.5563 8.13971 16.6494C8.31999 16.8375 8.39261 16.8721 8.65363 16.8905C8.9239 16.8742 9.10842 16.8178 9.35553 16.7092C9.42925 16.6784 9.50297 16.6476 9.57892 16.6158C9.82975 16.4396 9.85944 16.3136 9.92194 16.0159C9.93677 15.8094 9.94647 15.6071 9.95123 15.4006C9.97269 14.9036 10.0363 14.5592 10.3126 14.1409C10.3561 14.0716 10.3996 14.0023 10.4444 13.9309C11.0192 13.3561 11.6575 13.2695 12.4329 13.2656ZM11.4844 14.9221C11.3962 15.0985 11.3889 15.2173 11.3755 15.4134C11.3701 15.4806 11.3647 15.5478 11.3592 15.617C11.3484 15.7573 11.3384 15.8977 11.3293 16.0381C11.2817 16.6048 11.1259 17.0187 10.7813 17.4709C10.0189 18.0745 9.1663 18.3579 8.20319 18.2815C7.6782 18.1959 7.35172 17.8711 6.97638 17.5124C6.66306 17.2144 6.66306 17.2144 6.26959 17.0608C5.62321 17.1851 5.06802 17.9673 4.6192 18.4182C4.55253 18.4846 4.48586 18.5509 4.41717 18.6193C4.35353 18.6831 4.28988 18.7468 4.2243 18.8125C4.13822 18.8987 4.13822 18.8987 4.05039 18.9867C3.84698 19.2044 3.75217 19.3213 3.74029 19.6243C3.84865 19.9915 4.01785 20.1329 4.29144 20.3893C4.7932 20.8788 4.96124 21.4154 5.00006 22.1096C4.97393 22.802 4.55524 23.6182 4.10223 24.1238C3.59386 24.5736 3.06695 24.6481 2.40322 24.6553C2.04073 24.6633 1.79282 24.7307 1.48443 24.9221C1.35155 25.1879 1.39016 25.4908 1.38769 25.7833C1.38706 25.8535 1.38643 25.9236 1.38578 25.9959C1.3847 26.1444 1.38386 26.293 1.38325 26.4415C1.3819 26.6687 1.37847 26.8959 1.37503 27.1231C1.37424 27.2673 1.37357 27.4115 1.37304 27.5558C1.37167 27.6238 1.37031 27.6917 1.3689 27.7617C1.3698 28.1451 1.3698 28.1451 1.54308 28.4799C1.73426 28.604 1.83795 28.6357 2.06366 28.645C2.1292 28.649 2.19475 28.6529 2.26229 28.6571C2.33108 28.6604 2.39988 28.6638 2.47076 28.6672C3.14165 28.7185 3.69551 28.787 4.19897 29.2724C4.7022 29.876 5.02406 30.6965 5.00006 31.4846C4.91542 32.1912 4.5558 32.6624 4.0473 33.1335C3.90012 33.288 3.81607 33.3911 3.75006 33.594C3.76607 34.0566 3.96754 34.2596 4.28076 34.5672C4.32636 34.6132 4.37195 34.6592 4.41893 34.7065C4.51533 34.8032 4.61221 34.8993 4.70955 34.995C4.85799 35.1414 5.00422 35.2897 5.15036 35.4383C5.24448 35.5322 5.33873 35.6259 5.4331 35.7196C5.47658 35.7638 5.52006 35.8081 5.56485 35.8537C5.83145 36.1125 6.01777 36.2441 6.40631 36.2503C6.70276 36.0989 6.91224 35.9026 7.13873 35.6643C7.54731 35.2468 7.98783 35.0377 8.57245 34.9978C9.33624 35.0083 10.2718 35.3369 10.8189 35.876C11.2744 36.4129 11.3051 37.0614 11.3386 37.733C11.3432 37.7993 11.3478 37.8656 11.3526 37.9339C11.3555 37.9933 11.3584 38.0526 11.3615 38.1138C11.4279 38.3621 11.5064 38.4469 11.7188 38.594C11.9589 38.64 12.1951 38.6378 12.439 38.6355C12.5089 38.6358 12.5789 38.6361 12.6509 38.6364C12.7985 38.6366 12.9461 38.6361 13.0937 38.6347C13.3196 38.6331 13.5453 38.6347 13.7711 38.6367C13.9147 38.6365 14.0582 38.6361 14.2017 38.6355C14.3029 38.6365 14.3029 38.6365 14.4062 38.6374C14.7891 38.6326 14.7891 38.6326 15.1183 38.4498C15.3076 38.1755 15.321 37.9438 15.3313 37.6177C15.3542 36.9507 15.4185 36.4141 15.8774 35.8981C16.4793 35.3565 17.317 35.0243 18.1251 35.0003C18.8936 35.0606 19.3462 35.501 19.878 36.0217C20.1167 36.2011 20.2482 36.2522 20.5469 36.2503C20.8854 36.051 21.1557 35.8171 21.432 35.5395C21.4691 35.5023 21.5062 35.4652 21.5444 35.4269C21.6221 35.349 21.6995 35.271 21.7768 35.1927C21.895 35.0731 22.0138 34.9542 22.1326 34.8353C22.644 34.3734 22.644 34.3734 22.9346 33.7747C22.8773 33.437 22.7263 33.298 22.4961 33.0532C21.9405 32.4608 21.6711 31.9535 21.6834 31.1279C21.7764 30.4232 22.1054 29.5672 22.6426 29.0933C23.2973 28.6925 23.9182 28.6545 24.6769 28.6361C24.9671 28.5862 25.0576 28.5125 25.2344 28.2815C25.3307 27.9928 25.3268 27.7236 25.3284 27.4227C25.3289 27.3616 25.3293 27.3004 25.3298 27.2374C25.3305 27.108 25.331 26.9786 25.3313 26.8493C25.3321 26.6519 25.3345 26.4546 25.337 26.2573C25.3375 26.1314 25.3379 26.0056 25.3382 25.8798C25.3392 25.821 25.3401 25.7622 25.3411 25.7017C25.3396 25.3487 25.2943 25.1256 25.0782 24.844C24.7996 24.6295 24.4673 24.6688 24.1309 24.6633C23.4427 24.636 22.9053 24.4934 22.4024 23.9944C21.9142 23.3528 21.6346 22.5217 21.6788 21.719C21.7889 21.0738 22.1224 20.6444 22.5962 20.2105C22.783 20.032 22.8815 19.8881 22.9346 19.634C22.822 18.9708 21.9968 18.3915 21.5382 17.9348C21.4674 17.8638 21.3967 17.7927 21.3238 17.7195C21.2562 17.6521 21.1887 17.5847 21.1192 17.5152C21.0274 17.4236 21.0274 17.4236 20.9338 17.3301C20.7449 17.1537 20.6628 17.114 20.4047 17.0843C20.089 17.1165 19.9969 17.2142 19.7755 17.4368C19.1549 18.0311 18.6644 18.321 17.7933 18.3132C17.0209 18.2296 16.1976 17.8788 15.7032 17.2659C15.362 16.7912 15.3508 16.2707 15.3449 15.7055C15.3378 15.3527 15.304 15.1205 15.0782 14.844C14.7883 14.6429 14.4759 14.6638 14.1364 14.6642C14.0755 14.6639 14.0147 14.6636 13.952 14.6632C13.8234 14.6628 13.6948 14.6627 13.5662 14.6631C13.3704 14.6633 13.1747 14.6615 12.9789 14.6595C12.8537 14.6593 12.7284 14.6593 12.6032 14.6594C12.5451 14.6586 12.487 14.6579 12.4271 14.6572C12.0557 14.6604 11.7992 14.7238 11.4844 14.9221Z" fill="#767676"/>
<path d="M20.6128 -0.0521135C20.7237 -0.0523774 20.8345 -0.0527571 20.9454 -0.053246C21.1765 -0.0538184 21.4076 -0.0529964 21.6388 -0.0511599C21.933 -0.0489343 22.227 -0.0502177 22.5213 -0.0525554C22.7498 -0.0539764 22.9784 -0.0535134 23.2069 -0.0525054C23.3153 -0.0522475 23.4237 -0.0525553 23.5321 -0.053474C24.272 -0.0583716 24.8982 0.0086253 25.4613 0.527518C25.8964 0.987311 26.05 1.481 26.0501 2.10487C26.0517 2.19076 26.0517 2.19076 26.0532 2.27838C26.0564 2.4596 26.0581 2.64079 26.0596 2.82203C26.0614 3.00382 26.0636 3.18559 26.0667 3.36736C26.0686 3.47996 26.0698 3.59257 26.0702 3.70518C26.0749 4.01285 26.0889 4.26509 26.25 4.53102C26.4475 4.66293 26.4475 4.66293 26.6904 4.75715C26.779 4.79467 26.8677 4.83218 26.9591 4.87083C27.0522 4.90855 27.1453 4.94626 27.2412 4.98512C27.3328 5.02434 27.4244 5.06357 27.5188 5.10399C28.1507 5.3708 28.1507 5.3708 28.8281 5.39039C29.0399 5.24974 29.0399 5.24974 29.2184 5.04524C29.3226 4.93685 29.3226 4.93685 29.4289 4.82628C29.5005 4.7491 29.5721 4.67184 29.6436 4.59449C30.3786 3.8133 30.9202 3.25998 32.0313 3.20289C32.8194 3.26185 33.2858 3.73122 33.8162 4.26948C33.8736 4.32707 33.931 4.38466 33.9901 4.444C34.1725 4.62726 34.3543 4.81106 34.5361 4.99488C34.6586 5.11816 34.7812 5.2414 34.9037 5.36461C35.1779 5.64033 35.4517 5.91643 35.7252 6.19277C35.8436 6.31199 35.9625 6.43061 36.0817 6.54901C36.5461 7.01672 36.7462 7.41683 36.7987 8.07136C36.7905 9.00667 36.1856 9.61412 35.5565 10.2344C35.4937 10.2956 35.4309 10.3567 35.3662 10.4197C35.2394 10.5438 35.1127 10.6681 34.9863 10.7926C34.9307 10.8467 34.8752 10.9009 34.818 10.9566C34.656 11.1266 34.6136 11.2139 34.5859 11.4478C34.6182 11.8201 34.756 12.117 34.9072 12.4558C34.9351 12.5199 34.9629 12.584 34.9916 12.6501C35.0464 12.7759 35.1018 12.9015 35.158 13.0268C35.2064 13.1384 35.252 13.2514 35.2934 13.3659C35.3989 13.6562 35.3989 13.6562 35.6347 13.8415C35.9096 13.9204 36.1677 13.9263 36.4511 13.9246C36.5673 13.9258 36.6836 13.9271 36.7998 13.9285C36.981 13.9297 37.1621 13.9304 37.3433 13.9299C38.131 13.929 38.8349 13.9469 39.445 14.5119C40.0363 15.133 40.0371 15.7861 40.0366 16.6053C40.0372 16.7165 40.0378 16.8277 40.0384 16.9389C40.0395 17.1714 40.0396 17.4039 40.0391 17.6365C40.0387 17.9325 40.0411 18.2285 40.0442 18.5245C40.0463 18.7541 40.0465 18.9836 40.0462 19.2132C40.0463 19.3222 40.0471 19.4313 40.0485 19.5403C40.057 20.2858 39.9918 20.9059 39.4745 21.4767C38.9984 21.9368 38.4301 22.0656 37.7893 22.06C37.6682 22.0614 37.547 22.0627 37.4258 22.0641C37.2374 22.0649 37.049 22.0652 36.8606 22.0651C36.677 22.0653 36.4934 22.0675 36.3098 22.0698C36.2536 22.0691 36.1973 22.0685 36.1394 22.0678C35.8791 22.0717 35.7302 22.0889 35.5191 22.2465C35.3943 22.4167 35.3081 22.568 35.2289 22.7631C35.2024 22.8273 35.1759 22.8915 35.1486 22.9577C35.1221 23.0241 35.0957 23.0905 35.0684 23.159C35.0413 23.2251 35.0142 23.2912 34.9863 23.3593C34.9119 23.5412 34.8387 23.7236 34.7656 23.906C34.719 24.019 34.719 24.019 34.6713 24.1343C34.5798 24.3742 34.5642 24.5093 34.6094 24.7654C34.8287 25.1101 35.1471 25.3821 35.4398 25.6635C36.7485 26.9287 36.7485 26.9287 36.8018 27.8733C36.774 28.8588 36.1458 29.4254 35.4843 30.0913C35.419 30.1573 35.3537 30.2233 35.2864 30.2913C35.149 30.4299 35.0113 30.5683 34.8734 30.7065C34.6636 30.9173 34.4553 31.1294 34.247 31.3416C34.1126 31.4767 33.9782 31.6117 33.8437 31.7466C33.7821 31.8097 33.7206 31.8727 33.6572 31.9377C33.2109 32.3804 32.7846 32.6819 32.153 32.7729C32.0726 32.7714 31.9921 32.7699 31.9092 32.7683C31.7882 32.7682 31.7882 32.7682 31.6647 32.768C31.1103 32.6954 30.7371 32.504 30.332 32.114C30.2911 32.0749 30.2501 32.0357 30.2079 31.9953C30.0593 31.8521 29.9125 31.7073 29.7656 31.5623C29.7009 31.499 29.6361 31.4358 29.5694 31.3706C29.3559 31.1617 29.1431 30.952 28.9307 30.742C28.8615 30.6738 28.7922 30.6056 28.7209 30.5354C28.6561 30.4706 28.5913 30.4059 28.5245 30.3391C28.4663 30.2813 28.4081 30.2234 28.3482 30.1638C28.1714 29.9639 28.0533 29.7979 28.0377 29.5283C28.0884 29.1043 28.0884 29.1043 28.2568 28.9109C28.483 28.807 28.6566 28.76 28.9063 28.7498C29.2636 28.9222 29.5148 29.183 29.7882 29.463C29.8568 29.5321 29.8568 29.5321 29.9267 29.6027C30.072 29.7494 30.2167 29.8965 30.3613 30.0437C30.5066 30.1912 30.652 30.3385 30.7976 30.4856C30.888 30.5769 30.9782 30.6684 31.0681 30.7602C31.407 31.1137 31.407 31.1137 31.8506 31.2937C32.133 31.2458 32.1948 31.1964 32.4001 31.0099C32.455 30.9601 32.51 30.9104 32.5666 30.8591C33.0014 30.4544 33.4267 30.0406 33.8496 29.6236C33.9661 29.5092 34.0831 29.3955 34.2006 29.2822C34.3716 29.1174 34.5407 28.9509 34.7095 28.784C34.7886 28.7087 34.7886 28.7087 34.8692 28.632C35.1214 28.3788 35.2263 28.2672 35.2721 27.9025C35.2334 27.6499 35.2089 27.5613 35.0342 27.3826C34.9851 27.3308 34.9361 27.2791 34.8856 27.2257C34.726 27.0688 34.5653 26.9133 34.404 26.7582C33.1344 25.5307 33.1344 25.5307 33.0615 24.575C33.0858 23.8795 33.3806 23.2912 33.6722 22.6698C33.7768 22.4412 33.8654 22.2072 33.9551 21.9724C34.2021 21.3849 34.5026 21.028 35.0836 20.7597C35.4385 20.6261 35.7708 20.6132 36.1475 20.611C36.2661 20.6092 36.3847 20.6073 36.5033 20.6054C36.6895 20.6026 36.8756 20.6004 37.0618 20.5993C37.2421 20.5981 37.4223 20.595 37.6025 20.5915C37.6858 20.5917 37.6858 20.5917 37.7708 20.592C38.0212 20.5858 38.1726 20.57 38.374 20.4158C38.5506 20.1893 38.5552 20.0714 38.5561 19.7864C38.5575 19.6515 38.5575 19.6515 38.5591 19.5139C38.5584 19.4171 38.5578 19.3204 38.5571 19.2207C38.5576 19.0713 38.5576 19.0713 38.558 18.9189C38.5583 18.7084 38.5578 18.498 38.5564 18.2875C38.5546 18.0177 38.5556 17.7481 38.5575 17.4784C38.5589 17.2209 38.5579 16.9635 38.5571 16.706C38.5581 16.5606 38.5581 16.5606 38.5591 16.4123C38.5581 16.3226 38.5571 16.2329 38.5561 16.1405C38.5558 16.0615 38.5556 15.9824 38.5553 15.901C38.5328 15.6938 38.5328 15.6938 38.3732 15.5602C38.1247 15.4262 37.9143 15.4383 37.6334 15.4368C37.5507 15.4355 37.5507 15.4355 37.4664 15.4342C37.2904 15.4315 37.1145 15.4303 36.9385 15.4295C35.0526 15.4201 35.0526 15.4201 34.375 14.7654C34.0498 14.3362 33.8526 13.8538 33.6621 13.3543C33.6099 13.2199 33.5576 13.0855 33.5053 12.9511C33.4807 12.8872 33.4562 12.8232 33.4309 12.7574C33.3675 12.5983 33.2981 12.4443 33.2257 12.2892C33.1167 12.0098 33.0887 11.7978 33.0859 11.4988C33.0823 11.3675 33.0823 11.3675 33.0786 11.2336C33.2114 10.3852 33.7544 9.86851 34.3555 9.29664C34.5051 9.15213 34.6543 9.00709 34.8035 8.86207C34.9022 8.76766 34.9022 8.76766 35.003 8.67134C35.1931 8.47788 35.2287 8.38912 35.2797 8.12093C35.2102 7.64751 34.9199 7.41951 34.5871 7.09236C34.4876 6.99208 34.4876 6.99208 34.3861 6.88977C34.2456 6.74892 34.1045 6.60876 33.9627 6.46925C33.7459 6.25541 33.5322 6.03881 33.3186 5.82176C33.1817 5.68522 33.0447 5.54885 32.9074 5.41267C32.8436 5.34774 32.7798 5.28281 32.714 5.21591C32.356 4.86372 32.356 4.86372 31.8883 4.71035C31.6297 4.76782 31.5199 4.81604 31.3327 4.99885C31.2804 5.04887 31.2281 5.09888 31.1743 5.15041C31.1219 5.20382 31.0696 5.25724 31.0156 5.31227C30.9644 5.36417 30.9131 5.41607 30.8603 5.46955C30.6519 5.68352 30.4451 5.89882 30.2412 6.11717C29.7667 6.6066 29.2627 6.91577 28.5645 6.93336C27.8652 6.91444 27.2792 6.62094 26.6548 6.32789C26.4243 6.2222 26.1886 6.13143 25.9522 6.03981C25.3134 5.77027 24.9634 5.40731 24.6875 4.76539C24.605 4.43887 24.5965 4.11847 24.5929 3.78364C24.5907 3.66884 24.5885 3.55405 24.5862 3.43925C24.583 3.25959 24.5801 3.07994 24.578 2.90025C24.5759 2.72593 24.5723 2.55168 24.5685 2.37739C24.5681 2.29706 24.5681 2.29706 24.5677 2.2151C24.5594 1.89349 24.5261 1.71281 24.2969 1.48414C24.0933 1.43673 24.0933 1.43673 23.8593 1.44371C23.7696 1.44272 23.6799 1.44174 23.5875 1.44072C23.4906 1.44135 23.3936 1.44199 23.2938 1.44264C23.1943 1.44234 23.0948 1.44204 22.9922 1.44173C22.7816 1.44152 22.571 1.44194 22.3604 1.4434C22.0908 1.44518 21.8212 1.44416 21.5516 1.44228C21.2941 1.44088 21.0366 1.44186 20.7791 1.44264C20.6823 1.44201 20.5856 1.44137 20.4859 1.44072C20.351 1.4422 20.351 1.4422 20.2133 1.44371C20.0947 1.44408 20.0947 1.44408 19.9737 1.44446C19.7085 1.49504 19.6157 1.58457 19.4531 1.79664C19.4232 2.00289 19.4113 2.17759 19.4138 2.3835C19.413 2.44034 19.4123 2.49719 19.4115 2.55576C19.4093 2.73732 19.409 2.91879 19.4092 3.10035C19.4063 4.96024 19.4063 4.96024 18.8251 5.57686C18.1911 6.0984 17.304 6.36129 16.5459 6.66204C16.4308 6.7086 16.3172 6.75899 16.2042 6.81038C15.9619 6.8931 15.749 6.90408 15.4932 6.90895C15.3598 6.91363 15.3598 6.91363 15.2237 6.91841C14.3717 6.79522 13.8535 6.24582 13.2813 5.6443C13.1367 5.49464 12.9917 5.34549 12.8467 5.1963C12.7837 5.13046 12.7208 5.06463 12.6559 4.99679C12.4619 4.80609 12.3735 4.771 12.1043 4.72026C11.6348 4.78919 11.417 5.07576 11.0968 5.40931C11.0319 5.47484 10.9669 5.54036 10.9 5.60787C10.6931 5.81733 10.4882 6.02864 10.2832 6.24C10.1435 6.38183 10.0036 6.52353 9.86359 6.66511C9.60862 6.92401 9.35389 7.18311 9.10084 7.44388C9.04992 7.49628 8.999 7.54867 8.94655 7.60265C8.78618 7.78072 8.7521 7.87052 8.72665 8.11174C8.75547 8.41712 8.8343 8.50553 9.04541 8.72383C9.10966 8.79104 9.17391 8.85825 9.24011 8.9275C9.6471 9.33426 10.0554 9.73956 10.4703 10.1383C10.5852 10.249 10.6992 10.3606 10.813 10.4725C10.9137 10.57 10.9137 10.57 11.0164 10.6694C11.1837 10.8736 11.2316 10.989 11.25 11.2498C11.1742 11.515 11.0863 11.7127 10.8594 11.8748C10.6445 11.948 10.6445 11.948 10.3906 11.9529C9.98259 11.7517 9.68053 11.5121 9.36249 11.1903C9.31929 11.1473 9.27609 11.1043 9.23158 11.06C9.1409 10.9695 9.05051 10.8787 8.9604 10.7876C8.82414 10.6501 8.68668 10.5139 8.54904 10.3777C7.26713 9.09842 7.26713 9.09842 7.23633 8.115C7.2325 8.03262 7.22867 7.95024 7.22473 7.86537C7.33525 7.08847 7.83308 6.56222 8.37311 6.03065C8.44217 5.9614 8.51123 5.89215 8.58239 5.8208C8.7647 5.63858 8.94791 5.45732 9.13149 5.27637C9.24327 5.16568 9.35433 5.05433 9.46516 4.9427C9.67972 4.72667 9.89535 4.51179 10.1114 4.29725C10.2098 4.19825 10.2098 4.19825 10.3102 4.09725C10.8114 3.60596 11.288 3.24899 12.009 3.20076C12.9425 3.21193 13.5473 3.75382 14.1756 4.39293C14.2719 4.4927 14.2719 4.4927 14.3701 4.59449C14.5009 4.72863 14.6318 4.86261 14.7629 4.99641C14.8198 5.05521 14.8767 5.114 14.9353 5.17458C15.1492 5.38078 15.21 5.39039 15.5176 5.39039C16.1117 5.31817 16.6524 5.01856 17.1875 4.76539C17.259 4.73236 17.3305 4.69933 17.4042 4.6653C17.6995 4.53912 17.6995 4.53912 17.8906 4.29664C17.8991 4.09984 17.9032 3.90482 17.9044 3.70796C17.9062 3.58706 17.9081 3.46616 17.91 3.34526C17.9127 3.15516 17.915 2.9651 17.9161 2.77498C17.9216 1.9394 17.9819 1.31703 18.4473 0.605235C19.0863 -0.00601313 19.7605 -0.0593384 20.6128 -0.0521135Z" fill="url(#paint0_linear_1_130)"/>
<path d="M17.2656 22.0313C18.3997 23.0286 19.2187 24.3842 19.3649 25.9116C19.4588 27.61 19.1248 29.4618 17.9687 30.7813C16.4932 32.0698 14.8047 32.8267 12.825 32.7179C11.2256 32.54 9.78833 31.8501 8.71031 30.6394C7.8998 29.6077 7.32448 28.3559 7.26561 27.0313C7.26158 26.9753 7.25756 26.9193 7.25341 26.8616C7.21362 25.8737 7.4462 24.8623 7.89061 23.9844C7.92908 23.9076 7.96755 23.8307 8.00719 23.7516C8.75217 22.3739 10.0148 21.3352 11.5088 20.8542C11.7342 20.7959 11.9587 20.7463 12.1875 20.7032C12.2745 20.6854 12.3615 20.6677 12.4512 20.6494C14.2384 20.4954 15.8644 20.9034 17.2656 22.0313ZM9.76561 23.6719C8.93643 24.733 8.58274 25.9397 8.70818 27.2712C8.87196 28.4738 9.49216 29.5402 10.423 30.3128C11.0393 30.7658 11.7404 31.1239 12.5 31.25C12.563 31.2605 12.6261 31.271 12.691 31.2818C14.0136 31.4514 15.2709 31.0192 16.3281 30.2344C17.278 29.4665 17.8334 28.3063 17.9687 27.1094C18.0756 25.948 17.7485 24.7658 17.0202 23.8529C16.8476 23.6553 16.6695 23.4671 16.4844 23.2813C16.4421 23.2372 16.3998 23.1931 16.3562 23.1476C15.5608 22.3884 14.409 22.049 13.3349 21.9971C11.9003 22.0458 10.7371 22.6323 9.76561 23.6719Z" fill="#767676"/>
<path d="M27.4139 11.1205C29.1962 12.62 30.3788 14.578 30.6812 16.91C30.8785 19.4045 30.244 21.7094 28.6719 23.672C28.0579 24.3566 28.0579 24.3566 27.6709 24.3996C27.3648 24.3696 27.249 24.2742 27.0313 24.0627C26.9193 23.8388 26.9292 23.6867 26.9531 23.4377C27.1159 23.1324 27.3241 22.9045 27.5586 22.6515C28.2587 21.8707 28.6739 20.9895 28.9844 20.0002C29.0111 19.9155 29.0378 19.8308 29.0653 19.7435C29.5448 17.9079 29.2126 15.9017 28.2877 14.2665C27.3788 12.8515 26.136 11.7716 24.5605 11.1818C24.5009 11.1594 24.4413 11.1371 24.3799 11.114C22.917 10.5951 21.2348 10.6079 19.7656 11.0939C19.7146 11.1107 19.6636 11.1274 19.6111 11.1447C18.6147 11.4832 17.8035 12.0166 17.0435 12.7437C16.8375 12.9235 16.6805 13.0403 16.4035 13.0562C15.9796 13.0056 15.9796 13.0056 15.7861 12.8371C15.6822 12.611 15.6352 12.4373 15.625 12.1877C16.082 11.0738 17.6285 10.3744 18.6719 9.92204C21.5454 8.72895 24.9685 9.19907 27.4139 11.1205Z" fill="url(#paint1_linear_1_130)"/>
</g>
<defs>
<linearGradient id="paint0_linear_1_130" x1="31.5" y1="4.8302" x2="19" y2="17.3302" gradientUnits="userSpaceOnUse">
<stop stop-color="#CBF56D"/>
<stop offset="1" stop-color="#CBF56D" stop-opacity="0"/>
</linearGradient>
<linearGradient id="paint1_linear_1_130" x1="28.5" y1="10.8306" x2="19.5" y2="19.8306" gradientUnits="userSpaceOnUse">
<stop stop-color="#CBF56D"/>
<stop offset="0.825828" stop-color="#CBF56D" stop-opacity="0"/>
</linearGradient>
<clipPath id="clip0_1_130">
<rect width="40" height="40" fill="white"/>
</clipPath>
</defs>
</svg>
