<svg width="40" height="40" viewBox="0 0 40 40" fill="none" xmlns="http://www.w3.org/2000/svg">
<path d="M31.0058 29.5947C31.8093 30.3691 32.3743 31.3058 32.4999 32.4219C32.5655 32.4212 32.631 32.4205 32.6985 32.4198C33.3169 32.4135 33.9352 32.4088 34.5536 32.4057C34.8716 32.4041 35.1894 32.4019 35.5073 32.3983C35.8143 32.3949 36.1213 32.3931 36.4282 32.3922C36.5452 32.3917 36.6621 32.3905 36.779 32.3889C36.9432 32.3866 37.1073 32.3863 37.2715 32.3864C37.3649 32.3857 37.4582 32.385 37.5544 32.3843C37.8688 32.4301 38.0354 32.5362 38.2812 32.7344C38.4818 33.0542 38.5392 33.281 38.4765 33.6475C38.3883 33.971 38.261 34.1215 37.9687 34.2969C37.7456 34.4084 37.5564 34.3844 37.307 34.3839C37.2293 34.3839 37.2293 34.3839 37.1499 34.3839C36.9783 34.3839 36.8067 34.3833 36.6351 34.3827C36.5162 34.3825 36.3973 34.3824 36.2784 34.3823C35.9653 34.382 35.6522 34.3813 35.339 34.3804C35.0196 34.3796 34.7002 34.3792 34.3807 34.3788C33.7538 34.378 33.1269 34.3767 32.4999 34.375C32.4881 34.4741 32.4763 34.5732 32.4641 34.6753C32.3447 35.6751 31.6403 36.7199 30.8593 37.3438C30.5806 37.5404 30.2946 37.7189 29.9999 37.8906C29.9468 37.9222 29.8936 37.9537 29.8388 37.9862C28.7609 38.5768 27.2844 38.6408 26.1088 38.3212C25.1946 38.0314 24.508 37.5423 23.8281 36.875C23.7781 36.827 23.7282 36.7789 23.6767 36.7295C23.1572 36.1879 22.7891 35.4833 22.649 34.7473C22.6355 34.6774 22.622 34.6076 22.6082 34.5356C22.5982 34.4826 22.5883 34.4296 22.5781 34.375C22.5139 34.3752 22.5139 34.3752 22.4484 34.3753C19.9119 34.3805 17.3754 34.3846 14.8389 34.387C14.5344 34.3873 14.2299 34.3876 13.9254 34.3879C13.8344 34.388 13.8344 34.388 13.7417 34.3881C12.7599 34.3891 11.7781 34.391 10.7963 34.3931C9.789 34.3953 8.7817 34.3966 7.7744 34.3971C7.15277 34.3974 6.53115 34.3984 5.90952 34.4003C5.43296 34.4017 4.95642 34.4018 4.47986 34.4015C4.28428 34.4016 4.0887 34.4021 3.89313 34.403C3.62643 34.4041 3.35977 34.4038 3.09307 34.4032C3.0154 34.4039 2.93773 34.4046 2.85771 34.4053C2.37488 34.4021 2.01002 34.3539 1.65246 33.9963C1.47987 33.6739 1.5146 33.3231 1.56244 32.9688C1.72754 32.6798 1.88489 32.548 2.18744 32.4219C2.35699 32.4025 2.35699 32.4025 2.54434 32.4027C2.61599 32.4024 2.68764 32.4021 2.76146 32.4017C2.83989 32.4022 2.91832 32.4026 2.99912 32.4031C3.12442 32.4029 3.12442 32.4029 3.25225 32.4027C3.53308 32.4024 3.81389 32.4033 4.09471 32.4042C4.29565 32.4042 4.49658 32.4042 4.69752 32.4041C5.13059 32.404 5.56366 32.4045 5.99674 32.4054C6.62289 32.4066 7.24904 32.4071 7.8752 32.4073C8.89107 32.4076 9.90695 32.4086 10.9228 32.4101C11.9097 32.4115 12.8966 32.4127 13.8834 32.4133C13.9442 32.4134 14.0051 32.4134 14.0677 32.4134C14.3729 32.4136 14.678 32.4138 14.9831 32.414C17.5148 32.4157 20.0464 32.4184 22.5781 32.4219C22.595 32.2938 22.595 32.2938 22.6123 32.1631C22.7863 31.0201 23.5897 29.9195 24.5068 29.2432C25.1324 28.8287 25.8217 28.4952 26.5624 28.3594C26.6368 28.3452 26.6368 28.3452 26.7126 28.3307C28.2597 28.0922 29.8306 28.5721 31.0058 29.5947ZM25.3036 31.1682C24.6304 31.8985 24.4048 32.72 24.4253 33.693C24.4836 34.3054 24.7058 34.8239 25.0781 35.3125C25.1433 35.4092 25.1433 35.4092 25.2099 35.5078C25.7582 36.1005 26.5815 36.5079 27.3898 36.565C28.3576 36.5524 29.1391 36.2265 29.8406 35.5646C30.4226 34.9291 30.7622 34.0954 30.725 33.2273C30.6199 32.364 30.2573 31.5826 29.6179 30.9842C28.2734 29.9659 26.549 30.0231 25.3036 31.1682Z" fill="#767676"/>
<path d="M27.5243 1.52814C27.6418 1.52903 27.6418 1.52903 27.7617 1.52993C29.2209 1.56217 30.4086 2.18614 31.4235 3.22431C31.7417 3.5934 31.9727 3.98665 32.1825 4.42365C32.2056 4.47125 32.2286 4.51884 32.2523 4.56788C32.4141 4.9259 32.4574 5.23977 32.4999 5.62482C32.5654 5.62413 32.6309 5.62343 32.6984 5.62272C33.3168 5.61645 33.9352 5.61169 34.5536 5.60863C34.8715 5.607 35.1894 5.60479 35.5073 5.60124C35.8143 5.59784 36.1212 5.59598 36.4282 5.59517C36.5451 5.59459 36.6621 5.59347 36.779 5.59178C36.9432 5.5895 37.1073 5.5892 37.2715 5.58934C37.3648 5.58865 37.4582 5.58796 37.5543 5.58724C37.8688 5.63303 38.0354 5.73914 38.2812 5.93732C38.4818 6.25709 38.5392 6.48391 38.4765 6.85041C38.3883 7.17393 38.2609 7.32444 37.9687 7.49982C37.7481 7.61008 37.5608 7.59075 37.3142 7.59399C37.2631 7.59476 37.212 7.59553 37.1594 7.59633C36.9903 7.5988 36.8212 7.60073 36.6521 7.60266C36.535 7.60427 36.4179 7.60591 36.3007 7.60758C35.9922 7.6119 35.6837 7.61576 35.3752 7.61952C35.0605 7.62345 34.7458 7.6278 34.4311 7.63211C33.8134 7.64052 33.1957 7.64844 32.578 7.65607C32.5528 7.7354 32.5275 7.81472 32.5015 7.89645C32.4672 8.00219 32.4329 8.10791 32.3986 8.21363C32.3821 8.26571 32.3656 8.3178 32.3486 8.37147C31.9277 9.65888 30.9431 10.605 29.7704 11.2303C28.497 11.8314 27.0483 11.8639 25.7274 11.3914C24.3794 10.8341 23.4988 9.93225 22.8472 8.64728C22.753 8.40697 22.697 8.20176 22.6491 7.95056C22.6356 7.88065 22.6221 7.81074 22.6082 7.73872C22.5933 7.65913 22.5933 7.65913 22.578 7.57794C22.5136 7.57812 22.5136 7.57812 22.4478 7.5783C19.9016 7.5853 17.3553 7.59066 14.809 7.5939C14.5033 7.59429 14.1976 7.5947 13.892 7.59511C13.8007 7.59523 13.8007 7.59523 13.7075 7.59536C12.722 7.59672 11.7364 7.59918 10.7508 7.60206C9.73963 7.60498 8.72844 7.60671 7.71725 7.60735C7.09322 7.60778 6.4692 7.60913 5.84518 7.61167C5.36678 7.61351 4.88841 7.61371 4.41001 7.61329C4.21368 7.61338 4.01734 7.614 3.82101 7.6152C3.55327 7.61675 3.28561 7.61638 3.01787 7.61552C2.9399 7.61643 2.86193 7.61734 2.78159 7.61828C2.33628 7.61443 2.06742 7.57125 1.71865 7.26544C1.48638 6.91704 1.51395 6.58023 1.5624 6.17169C1.74254 5.84478 1.91377 5.72929 2.26552 5.62482C2.53826 5.60222 2.81011 5.60443 3.08364 5.60603C3.16692 5.6059 3.2502 5.60576 3.33601 5.60563C3.61551 5.60537 3.89499 5.60623 4.17449 5.60708C4.37467 5.60713 4.57485 5.6071 4.77503 5.60701C5.20623 5.60698 5.63742 5.60742 6.06862 5.6083C6.69205 5.60957 7.31549 5.60998 7.93892 5.61017C8.95043 5.61051 9.96193 5.61155 10.9734 5.61303C11.956 5.61447 12.9385 5.61557 13.921 5.61624C13.9816 5.61628 14.0422 5.61632 14.1046 5.61636C14.4085 5.61657 14.7123 5.61676 15.0162 5.61696C17.5368 5.61858 20.0574 5.62133 22.578 5.62482C22.5894 5.53935 22.6008 5.45388 22.6125 5.36582C22.7287 4.59992 23.1288 3.96336 23.5936 3.35919C23.6782 3.24076 23.6782 3.24076 23.7645 3.11994C24.6995 2.04093 26.1274 1.51321 27.5243 1.52814ZM25.2752 4.39374C25.0328 4.67334 24.8574 4.98519 24.6874 5.31232C24.6606 5.35935 24.6338 5.40638 24.6062 5.45484C24.2951 6.10181 24.3558 7.0641 24.5751 7.73419C24.9328 8.55957 25.5713 9.19366 26.3915 9.56037C27.2435 9.86683 28.0935 9.81604 28.911 9.44318C29.7154 9.01005 30.1962 8.40913 30.5712 7.58771C30.7912 6.5876 30.7059 5.71762 30.1561 4.84357C29.5629 4.04583 28.8436 3.60431 27.8612 3.45197C26.9242 3.37727 25.9609 3.75483 25.2752 4.39374Z" fill="#767676"/>
<path d="M18.0393 15.862C18.9637 16.581 19.609 17.4663 19.8893 18.6105C19.9206 18.7373 19.9206 18.7373 19.9524 18.8668C19.9681 18.9313 19.9839 18.9959 20.0001 19.0624C20.1377 19.0618 20.1377 19.0618 20.2782 19.0613C22.4566 19.0528 24.6351 19.0464 26.8136 19.0424C27.0817 19.0419 27.3499 19.0414 27.618 19.0409C27.6714 19.0408 27.7248 19.0407 27.7798 19.0406C28.6441 19.0389 29.5084 19.0358 30.3728 19.0322C31.2596 19.0286 32.1465 19.0264 33.0334 19.0256C33.5316 19.0251 34.0297 19.0239 34.5279 19.0211C34.9966 19.0184 35.4653 19.0176 35.9341 19.0182C36.1062 19.0181 36.2784 19.0173 36.4505 19.0158C36.6854 19.0139 36.9202 19.0143 37.1551 19.0154C37.2575 19.0137 37.2575 19.0137 37.3619 19.012C37.6926 19.016 37.904 19.0393 38.1661 19.2509C38.4638 19.5621 38.4681 19.7727 38.4656 20.1912C38.4204 20.5123 38.2814 20.6416 38.0469 20.8593C37.7829 20.9913 37.4831 20.9477 37.1927 20.9468C37.0829 20.9469 37.0829 20.9469 36.9709 20.947C36.7241 20.9471 36.4774 20.9467 36.2306 20.9462C36.0544 20.9462 35.8781 20.9462 35.7018 20.9463C35.2219 20.9463 34.7421 20.9458 34.2622 20.9453C33.7612 20.9448 33.2602 20.9448 32.7592 20.9447C31.9179 20.9445 31.0765 20.944 30.2352 20.9433C29.3685 20.9426 28.5018 20.942 27.6352 20.9417C27.5551 20.9416 27.5551 20.9416 27.4734 20.9416C27.2055 20.9415 26.9376 20.9414 26.6697 20.9413C24.4465 20.9405 22.2233 20.9391 20.0001 20.9374C19.9843 21.002 19.9686 21.0665 19.9523 21.1331C19.9315 21.2177 19.9106 21.3023 19.8892 21.3895C19.8583 21.5154 19.8583 21.5154 19.8268 21.6438C19.5076 22.8509 18.6099 23.821 17.5583 24.4484C16.2507 25.1483 14.8338 25.2793 13.4183 24.8635C12.0075 24.3922 11.0071 23.4594 10.3379 22.144C10.2413 21.8927 10.1748 21.6504 10.1108 21.3893C10.0795 21.2624 10.0795 21.2624 10.0477 21.133C10.032 21.0684 10.0163 21.0039 10.0001 20.9374C9.85334 20.9387 9.85334 20.9387 9.70365 20.94C8.78175 20.9479 7.85985 20.9538 6.93791 20.9576C6.46394 20.9597 5.98999 20.9624 5.51603 20.9668C5.05861 20.9711 4.60122 20.9734 4.14378 20.9744C3.96928 20.9752 3.79479 20.9766 3.6203 20.9787C3.37583 20.9815 3.13147 20.9819 2.88698 20.9817C2.81488 20.9831 2.74279 20.9845 2.6685 20.986C2.32798 20.9833 2.10193 20.9674 1.83134 20.7491C1.5371 20.4368 1.53207 20.2257 1.53448 19.8085C1.57971 19.4875 1.71874 19.3582 1.95318 19.1405C2.13169 19.0513 2.2295 19.0527 2.42778 19.053C2.49439 19.0529 2.561 19.0528 2.62962 19.0527C2.70284 19.0529 2.77606 19.0532 2.8515 19.0535C2.92849 19.0535 3.00547 19.0535 3.08479 19.0535C3.34012 19.0535 3.59544 19.0541 3.85076 19.0547C4.02745 19.0549 4.20414 19.055 4.38082 19.0551C4.84654 19.0554 5.31224 19.0562 5.77795 19.057C6.25291 19.0578 6.72786 19.0582 7.20282 19.0586C8.13523 19.0594 9.06764 19.0607 10.0001 19.0624C10.0158 18.9978 10.0315 18.9333 10.0477 18.8668C10.0789 18.7399 10.0789 18.7399 10.1108 18.6105C10.1313 18.5266 10.1519 18.4427 10.1731 18.3562C10.4919 17.1544 11.3738 16.2112 12.407 15.566C14.2029 14.5937 16.3604 14.6847 18.0393 15.862ZM12.6319 17.9052C11.9953 18.6667 11.8094 19.4974 11.8751 20.4686C12.0183 21.293 12.4475 21.9853 13.0857 22.5188C13.8665 23.0669 14.7367 23.2521 15.676 23.0889C16.4989 22.8679 17.1661 22.4169 17.6563 21.7186C18.1068 20.9016 18.2839 20.0494 18.0372 19.1307C17.7521 18.3072 17.267 17.6459 16.4963 17.2209C15.1477 16.5857 13.6752 16.8109 12.6319 17.9052Z" fill="url(#paint0_linear_1_138)"/>
<defs>
<linearGradient id="paint0_linear_1_138" x1="7.83344" y1="19.8303" x2="19.5756" y2="34.2244" gradientUnits="userSpaceOnUse">
<stop stop-color="#CBF56D"/>
<stop offset="1" stop-color="#CBF56D" stop-opacity="0"/>
</linearGradient>
</defs>
</svg>
